Coordinates
nRows=207
nColumns=2
inDegrees=yes
endheader
time	ankle_angle_r	
3.02722	 -0.518854	
3.06048	 -0.542888	
3.09375	 -0.555115	
3.12702	 -0.554130	
3.16028	 -0.543057	
3.19355	 -0.525578	
3.22681	 -0.508925	
3.26008	 -0.499598	
3.29335	 -0.497335	
3.32661	 -0.497038	
3.35988	 -0.492527	
3.39315	 -0.481103	
3.42641	 -0.468752	
3.45968	 -0.466564	
3.49294	 -0.479035	
3.52621	 -0.498515	
3.55948	 -0.514217	
3.59274	 -0.523693	
3.62601	 -0.529482	
3.65927	 -0.530582	
3.69254	 -0.526896	
3.72581	 -0.523495	
3.75907	 -0.523072	
3.79234	 -0.523450	
3.8256	 -0.523396	
3.85887	 -0.523424	
3.89214	 -0.523247	
3.9254	 -0.521839	
3.95867	 -0.518868	
3.99194	 -0.516909	
4.0252	 -0.519439	
4.05847	 -0.524760	
4.09173	 -0.528890	
4.125	 -0.531263	
4.15827	 -0.530930	
4.19153	 -0.527039	
4.2248	 -0.523160	
4.25806	 -0.521692	
4.29133	 -0.521677	
4.3246	 -0.522848	
4.35786	 -0.524117	
4.39113	 -0.524603	
4.4244	 -0.524598	
4.45766	 -0.521602	
4.49093	 -0.513880	
4.52419	 -0.504423	
4.55746	 -0.496566	
4.59073	 -0.492001	
4.62399	 -0.490724	
4.65726	 -0.490198	
4.69052	 -0.489129	
4.72379	 -0.487467	
4.75706	 -0.482323	
4.79032	 -0.474220	
4.82359	 -0.469325	
4.85685	 -0.467337	
4.89012	 -0.462650	
4.92339	 -0.457666	
4.95665	 -0.458100	
4.98992	 -0.461148	
5.02319	 -0.461824	
5.05645	 -0.463008	
5.08972	 -0.468600	
5.12298	 -0.473919	
5.15625	 -0.472641	
5.18952	 -0.468457	
5.22278	 -0.469439	
5.25605	 -0.474065	
5.28931	 -0.475232	
5.32258	 -0.472570	
5.35585	 -0.469120	
5.38911	 -0.465892	
5.42238	 -0.464176	
5.45565	 -0.463332	
5.48891	 -0.461047	
5.52218	 -0.458991	
5.55544	 -0.459922	
5.58871	 -0.465038	
5.62198	 -0.477244	
5.65524	 -0.495086	
5.68851	 -0.509583	
5.72177	 -0.516088	
5.75504	 -0.518411	
5.78831	 -0.521746	
5.82157	 -0.527470	
5.85484	 -0.531189	
5.8881	 -0.529912	
5.92137	 -0.527743	
5.95464	 -0.528231	
5.9879	 -0.530747	
6.02117	 -0.533867	
6.05444	 -0.535742	
6.0877	 -0.535784	
6.12097	 -0.535517	
6.15423	 -0.537006	
6.1875	 -0.542332	
6.22077	 -0.550151	
6.25403	 -0.555984	
6.2873	 -0.559304	
6.32056	 -0.562290	
6.35383	 -0.563745	
6.3871	 -0.561306	
6.42036	 -0.556859	
6.45363	 -0.555460	
6.4869	 -0.557636	
6.52016	 -0.558700	
6.55343	 -0.557584	
6.58669	 -0.557999	
6.61996	 -0.560289	
6.65323	 -0.560345	
6.68649	 -0.557186	
6.71976	 -0.553633	
6.75302	 -0.550792	
6.78629	 -0.549074	
6.81956	 -0.549491	
6.85282	 -0.550788	
6.88609	 -0.551180	
6.91935	 -0.550755	
6.95262	 -0.550724	
6.98589	 -0.553018	
7.01915	 -0.555676	
7.05242	 -0.552180	
7.08569	 -0.543036	
7.11895	 -0.537982	
7.15222	 -0.543049	
7.18548	 -0.554316	
7.21875	 -0.561384	
7.25202	 -0.557077	
7.28528	 -0.547147	
7.31855	 -0.542030	
7.35181	 -0.543500	
7.38508	 -0.547930	
7.41835	 -0.552021	
7.45161	 -0.553641	
7.48488	 -0.554883	
7.51815	 -0.558957	
7.55141	 -0.563958	
7.58468	 -0.566112	
7.61794	 -0.563234	
7.65121	 -0.555301	
7.68448	 -0.547880	
7.71774	 -0.547130	
7.75101	 -0.550929	
7.78427	 -0.553800	
7.81754	 -0.554253	
7.85081	 -0.553022	
7.88407	 -0.551892	
7.91734	 -0.552699	
7.9506	 -0.554233	
7.98387	 -0.554470	
8.01714	 -0.552882	
8.0504	 -0.548944	
8.08367	 -0.544185	
8.11694	 -0.541809	
8.1502	 -0.541802	
8.18347	 -0.543554	
8.21673	 -0.547664	
8.25	 -0.550136	
8.28327	 -0.545938	
8.31653	 -0.536583	
8.3498	 -0.527442	
8.38306	 -0.523615	
8.41633	 -0.524794	
8.4496	 -0.523082	
8.48286	 -0.514295	
8.51613	 -0.504214	
8.5494	 -0.499431	
8.58266	 -0.498865	
8.61593	 -0.494543	
8.64919	 -0.483288	
8.68246	 -0.474451	
8.71573	 -0.477024	
8.74899	 -0.489051	
8.78226	 -0.504075	
8.81552	 -0.516124	
8.84879	 -0.522493	
8.88206	 -0.525098	
8.91532	 -0.525108	
8.94859	 -0.523709	
8.98185	 -0.524380	
9.01512	 -0.526625	
9.04839	 -0.527305	
9.08165	 -0.525703	
9.11492	 -0.520654	
9.14819	 -0.513655	
9.18145	 -0.510483	
9.21472	 -0.511631	
9.24798	 -0.513824	
9.28125	 -0.517398	
9.31452	 -0.521856	
9.34778	 -0.524943	
9.38105	 -0.526022	
9.41431	 -0.523323	
9.44758	 -0.516687	
9.48085	 -0.511786	
9.51411	 -0.512956	
9.54738	 -0.518449	
9.58065	 -0.524851	
9.61391	 -0.528860	
9.64718	 -0.525727	
9.68044	 -0.509579	
9.71371	 -0.477733	
9.74698	 -0.438137	
9.78024	 -0.406621	
9.81351	 -0.390945	
9.84677	 -0.385265	
9.88004	 -0.381653	
